<!-- Generated by IcoMoon.io -->
<svg version="1.1" xmlns="http://www.w3.org/2000/svg" width="43" height="32" viewBox="0 0 43 32">
<title>quotes</title>
<path fill="#e1e1e1" d="M32.023-0c1.928 0 3.751 0.52 5.465 1.561s3.108 2.537 4.179 4.489c1.029 1.952 1.544 4.251 1.544 6.896s-0.643 5.226-1.928 7.742c-0.429 0.911-1.2 2.081-2.316 3.513-1.157 1.431-2.229 2.667-3.214 3.708l-4.051 4.099-2.894-4.814c2.064-1.302 3.825-2.856 5.308-4.648l0.030-0.037c1.543-1.821 2.314-3.491 2.314-5.009 0-0.781-0.171-1.41-0.514-1.887-1.5 1.084-3.173 1.627-5.016 1.627-1.328 0-2.593-0.412-3.794-1.236-1.238-0.782-2.238-1.835-2.936-3.079l-0.022-0.043c-0.771-1.258-1.157-2.559-1.157-3.903 0-1.519 0.45-2.971 1.35-4.36 0.866-1.39 2.011-2.526 3.364-3.357l0.044-0.025c1.371-0.824 2.785-1.236 4.243-1.236zM8.938-0c1.928 0 3.751 0.52 5.465 1.561s3.108 2.537 4.179 4.489c1.029 1.952 1.544 4.251 1.544 6.896 0 1.864-0.236 3.535-0.707 5.009-0.472 1.518-1.286 3.101-2.444 4.749-1.115 1.561-2.165 2.862-3.15 3.903-0.986 1.084-2.701 2.884-5.145 5.4l-2.894-4.814c2.063-1.302 3.825-2.856 5.308-4.648l0.030-0.037c1.543-1.821 2.315-3.491 2.315-5.009 0-0.781-0.172-1.41-0.515-1.887-1.5 1.084-3.173 1.627-5.016 1.627-1.328 0-2.593-0.412-3.794-1.236-1.238-0.782-2.238-1.835-2.936-3.079l-0.022-0.043c-0.771-1.258-1.157-2.559-1.157-3.903 0-1.519 0.429-2.971 1.286-4.36 0.866-1.39 2.011-2.526 3.364-3.357l0.045-0.025c1.371-0.824 2.785-1.236 4.243-1.236z"></path>
</svg>
