<svg aria-hidden="true" style="position: absolute; width: 0; height: 0; overflow: hidden;" version="1.1"
    xmlns="http://www.w3.org/2000/svg"
    xmlns:xlink="http://www.w3.org/1999/xlink">
    <defs>
        <symbol id="icon-burger" viewBox="0 0 46 32">
            <path d="M45.714 3.429h-45.714v-2.286h45.714v2.286zM45.714 17.143h-45.714v-2.286h45.714v2.286zM45.714 30.857h-45.714v-2.286h45.714v2.286z"></path>
        </symbol>
        <symbol id="icon-close" viewBox="0 0 32 32">
            <path d="M28.76 30.694l-26.96-28 1.44-1.388 26.964 28-1.44 1.388z"></path>
            <path d="M30.694 3.24l-28 26.96-1.388-1.44 28-26.96 1.388 1.44z"></path>
        </symbol>
        <symbol id="icon-buy-arrow" viewBox="0 0 26 32">
            <path fill="#d41443" style="fill: var(--color1, #d41443)" d="M0.995 1.264c0.591-0.77 1.511-1.261 2.546-1.261 0.732 0 1.406 0.246 1.945 0.659l-0.008-0.006 16.826 12.8c0.768 0.591 1.259 1.51 1.259 2.544s-0.49 1.953-1.251 2.538l-0.008 0.006-16.826 12.8c-0.551 0.461-1.267 0.742-2.048 0.742-1.767 0-3.2-1.433-3.2-3.2 0-1.085 0.54-2.044 1.366-2.623l0.010-0.007 13.475-10.256-13.475-10.253c-0.77-0.591-1.261-1.511-1.261-2.546 0-0.732 0.246-1.406 0.659-1.945l-0.006 0.008z"></path>
        </symbol>
        <symbol id="icon-facebook" viewBox="0 0 33 32">
            <path d="M16.471 32c8.837 0 16-7.163 16-16s-7.163-16-16-16c-8.837 0-16 7.163-16 16s7.163 16 16 16z"></path>
            <path fill="#fff" style="fill: var(--color2, #fff)" d="M20.916 15.981h-2.61v9.618h-3.955v-9.618h-1.881v-3.38h1.881v-2.188c0-1.564 0.739-4.014 3.99-4.014l2.929 0.012v3.281h-2.125c-0.349 0-0.839 0.175-0.839 0.921v1.989h2.955l-0.346 3.377z"></path>
        </symbol>
        <symbol id="icon-github" viewBox="0 0 32 32">
            <path d="M32 16c0 8.837-7.163 16-16 16s-16-7.163-16-16c0-8.837 7.163-16 16-16s16 7.163 16 16z"></path>
            <path fill="#fff" style="fill: var(--color2, #fff)" d="M16 6.588c-5.169 0-9.412 4.242-9.412 9.412 0 4.411 3.095 8.419 7.206 9.412v-3.114c-0.407 0.089-0.782 0.092-1.197-0.030-0.556-0.164-1.008-0.535-1.344-1.1-0.214-0.361-0.593-0.752-0.988-0.723l-0.097-1.099c0.855-0.073 1.595 0.521 2.034 1.258 0.195 0.328 0.419 0.52 0.708 0.605 0.278 0.082 0.577 0.043 0.926-0.081 0.088-0.698 0.407-0.959 0.649-1.326v-0.001c-2.451-0.366-3.428-1.666-3.816-2.693-0.514-1.363-0.238-3.066 0.671-4.142 0.018-0.021 0.050-0.076 0.037-0.114-0.417-1.258 0.091-2.3 0.11-2.41 0.481 0.142 0.559-0.143 2.088 0.786l0.264 0.159c0.111 0.066 0.076 0.028 0.186 0.020 0.639-0.174 1.312-0.269 1.975-0.278 0.668 0.009 1.337 0.104 2.002 0.285l0.086 0.009c-0.008-0.001 0.023-0.005 0.075-0.036 1.911-1.157 1.842-0.779 2.354-0.946 0.018 0.111 0.519 1.169 0.107 2.411-0.056 0.171 1.657 1.739 0.708 4.256-0.388 1.027-1.365 2.328-3.816 2.693v0.001c0.314 0.479 0.692 0.734 0.69 1.722v3.887c4.111-0.993 7.206-5 7.206-9.412 0-5.169-4.242-9.412-9.412-9.412v0z"></path>
        </symbol>
        <symbol id="icon-telegram" viewBox="0 0 33 32">
            <path d="M32.235 16c0 8.837-7.163 16-16 16s-16-7.163-16-16c0-8.837 7.163-16 16-16s16 7.163 16 16z"></path>
            <path fill="#fff" style="fill: var(--color2, #fff)" d="M13.102 18.375l-0.318 4.169c0.454 0 0.651-0.182 0.887-0.401l2.13-1.9 4.414 3.017c0.81 0.421 1.38 0.199 1.598-0.695l2.898-12.673c0.257-1.117-0.433-1.554-1.222-1.28l-17.032 6.086c-1.162 0.421-1.145 1.026-0.198 1.3l4.355 1.264 10.115-5.907c0.476-0.294 0.909-0.131 0.553 0.163l-8.182 6.857z"></path>
        </symbol>
        <symbol id="contacts-btn-locations" viewBox="0 0 19 32">
            <path fill="none" stroke="#fff" stroke-width="6.4" stroke-miterlimit="4" stroke-linecap="round" stroke-linejoin="round" style="stroke: var(--color1, #fff)" d="M3.2 3.2l11.553 12.8-11.553 12.8"></path>
        </symbol>
        <symbol id="contacts-btn-franchise" viewBox="0 0 26 32">
            <path fill="none" stroke="#d41443" stroke-width="6.4" stroke-miterlimit="4" stroke-linecap="round" stroke-linejoin="round" style="stroke: var(--color2, #d41443)" d="M5.172 3.2l14.169 12.8-14.169 12.8"></path>
        </symbol>
        <symbol id="icon-github1" viewBox="0 0 32 32">
            <path fill="#fff" style="fill: var(--color1, #fff)" d="M16 0.941c-8.271 0-15.059 6.788-15.059 15.059 0 7.058 4.953 13.47 11.529 15.059v-4.982c-0.652 0.143-1.251 0.147-1.915-0.049-0.89-0.263-1.613-0.856-2.15-1.76-0.342-0.577-0.949-1.203-1.581-1.157l-0.155-1.758c1.368-0.117 2.551 0.833 3.254 2.013 0.312 0.525 0.671 0.832 1.132 0.969 0.446 0.131 0.924 0.068 1.481-0.129 0.14-1.116 0.651-1.534 1.037-2.122v-0.001c-3.922-0.585-5.486-2.666-6.106-4.308-0.822-2.181-0.381-4.905 1.073-6.627 0.028-0.034 0.079-0.121 0.060-0.183-0.667-2.014 0.146-3.679 0.176-3.856 0.769 0.228 0.894-0.229 3.342 1.258l0.423 0.254c0.177 0.105 0.121 0.045 0.298 0.032 1.022-0.278 2.099-0.431 3.16-0.445 1.069 0.014 2.14 0.167 3.204 0.456l0.137 0.014c-0.012-0.002 0.037-0.009 0.12-0.058 3.057-1.852 2.947-1.247 3.767-1.513 0.030 0.177 0.831 1.87 0.172 3.858-0.089 0.274 2.65 2.782 1.132 6.809-0.62 1.643-2.184 3.724-6.106 4.309v0.001c0.503 0.766 1.107 1.174 1.104 2.755v6.219c6.577-1.589 11.529-8.001 11.529-15.059 0-8.271-6.787-15.059-15.059-15.059v0z"></path>
        </symbol>
        <symbol id="icon-telegram1" viewBox="0 0 40 32">
            <path fill="#fff" style="fill: var(--color1, #fff)" d="M16.205 20.751l-0.635 8.339c0.909 0 1.302-0.364 1.774-0.802l4.261-3.801 8.829 6.035c1.619 0.842 2.76 0.399 3.197-1.39l5.797-25.346c0.514-2.234-0.866-3.108-2.443-2.56l-34.065 12.172c-2.325 0.842-2.29 2.052-0.395 2.6l8.709 2.528 20.229-11.814c0.952-0.588 1.818-0.263 1.106 0.326l-16.364 13.713z"></path>
        </symbol>
        <symbol id="icon-facebook1" viewBox="0 0 16 32">
            <path fill="#fff" style="fill: var(--color1, #fff)" d="M14.266 15.97h-4.176v15.39h-6.327v-15.39h-3.009v-5.409h3.009v-3.5c0-2.503 1.182-6.422 6.384-6.422l4.687 0.020v5.25h-3.401c-0.558 0-1.342 0.28-1.342 1.474v3.183h4.729l-0.553 5.403z"></path>
        </symbol>
        <symbol id="icon-arrow-right" viewBox="0 0 32 32">
            <path d="M19.414 27.414l10-10c0.781-0.781 0.781-2.047 0-2.828l-10-10c-0.781-0.781-2.047-0.781-2.828 0s-0.781 2.047 0 2.828l6.586 6.586h-19.172c-1.105 0-2 0.895-2 2s0.895 2 2 2h19.172l-6.586 6.586c-0.39 0.39-0.586 0.902-0.586 1.414s0.195 1.024 0.586 1.414c0.781 0.781 2.047 0.781 2.828 0z"></path>
        </symbol>
        <symbol id="icon-Vector" viewBox="0 0 26 32">
            <path fill="none" stroke-width="6.4" stroke-miterlimit="4" stroke-linecap="round" stroke-linejoin="round" d="M5.172 3.2l14.169 12.8-14.169 12.8"></path>
        </symbol>
        <symbol id="icon-Vector-1" viewBox="0 0 26 32">
            <path fill="none" stroke="#d41443" style="stroke: var(--color1, #d41443)" stroke-linejoin="round" stroke-linecap="round" stroke-miterlimit="4" stroke-width="6.4" d="M5.172 3.2l14.169 12.8-14.169 12.8"></path>
        </symbol>
        <symbol id="icon-Home" viewBox="0 0 35 32">
            <path fill="#d31342" style="fill: var(--color1, #d31342)" d="M34.278 15.613c0.257-0.28 0.414-0.654 0.414-1.065 0-0.475-0.21-0.902-0.543-1.191l-0.002-0.002-14.784-12.935c-0.318-0.269-0.733-0.432-1.185-0.432-0.467 0-0.894 0.174-1.218 0.461l0.002-0.002-14.832 13.599c-0.316 0.288-0.514 0.701-0.514 1.161 0 0.424 0.168 0.809 0.442 1.092l-0-0 0.374 0.387c0.614 0.64 1.612 0.721 2.226 0.171l1.107-0.993v14.533c0 0.894 0.721 1.614 1.615 1.614h5.778c0.891 0 1.614-0.721 1.614-1.614v-10.167h7.379v10.167c-0.013 0.891 0.624 1.614 1.516 1.614h6.127c0.891 0 1.612-0.721 1.612-1.614v-14.33l0.686 0.603c0.376 0.331 1.169 0.064 1.767-0.595l0.422-0.462z"></path>
        </symbol>
    </defs>
</svg>
